<?xml version="1.0" encoding="UTF-8"?>
<svg xmlns="http://www.w3.org/2000/svg" xmlns:xlink="http://www.w3.org/1999/xlink" version="1.1" width="512" height="512" x="0" y="0" viewBox="0 0 486.208 486.208" style="enable-background:new 0 0 512 512" xml:space="preserve" class="">
  <g>
    <path d="m478.996 219.227-186.039-54 33.976-41.794h20.909c-1.057 4.382.97 9.078 5.155 11.229a9.996 9.996 0 0 0 13.464-4.326L367.66 128c3.096-6.024 3.14-12.313.122-17.254-2.839-4.648-7.896-7.314-13.881-7.314h-70.334c-9.332 0-19.438 6.49-24.031 15.432-2.521 4.913-.586 10.941 4.327 13.464 4.912 2.523 10.94.585 13.464-4.327 1.249-2.433 4.773-4.568 6.24-4.568h17.59l-29.163 35.874c-10.458-2.757-20.439-5.074-28.518-6.897-3.374-.762-13.447-2.201-27.428-2.201-22.11 0-55.843 3.574-90.966 20.605-47.539 23.053-81.532 72.511-93.938 92.705l-1.235 2.008c-9.854 16.021-20.043 32.589-26.492 51.212-9.362 27.034.787 49.428 27.151 59.903 10.391 4.127 22.286 6.133 36.365 6.133.886 0 1.769-.008 2.65-.022 25.103-.407 45.408-1.243 63.906-2.631 24.284-1.819 45.493-5.592 64.835-11.528 63.577-19.513 123.852-40.978 196.038-67.013 18.592-6.705 37.459-13.596 55.704-20.259 8.702-3.178 26.347-9.606 26.466-9.646 8.448-2.771 9.691-9.125 9.67-12.71l.005-30.134a9.996 9.996 0 0 0-7.211-9.605zm-12.792 34.916a28873.01 28873.01 0 0 0-22.996 8.394c-18.228 6.655-37.073 13.539-55.629 20.229-71.93 25.942-131.972 47.325-195.121 66.707-17.901 5.495-37.681 8.997-60.462 10.704-9.59.719-19.705 1.285-30.762 1.721 13.622-16.564 17.65-30.611 12.3-42.622-6.312-14.161-24.358-22.08-55.173-24.212-8.126-.562-15.976-.628-22.547-.501l9.587-15.297 12.016 2.114c.012.002 30.817 5.72 56.973.023 17.027-3.708 29.321-15.854 36.742-22.787.555-.518 59.173-54.847 58.674-68.417-.146-3.929-1.743-7.445-4.665-9.894-3.492-2.928-9.56-5.814-26.588-6.409a194.29 194.29 0 0 1 37.497-3.688c12.823 0 21.424 1.349 23.023 1.71 10.567 2.386 24.461 5.632 38.183 9.577l165.853 48.14-189.004-4.362a2.572 2.572 0 0 0-.174-.006c-43.828 0-79.896 50.9-81.411 53.066a2.5 2.5 0 0 0 2.418 3.907l291.27-37.103-.004 9.006z" fill="#ffffff" opacity="1" data-original="#000000" class=""/>
  </g>
</svg>
